<svg xmlns="http://www.w3.org/2000/svg" width="900" height="720" viewBox="0 0 900 720">
    <defs><marker id="arr" markerWidth="10" markerHeight="10" refX="8" refY="3" orient="auto"><path d="M0,0 L0,6 L9,3 z" fill="#B7FF00"/></marker></defs>
    <rect width="900" height="720" rx="38" fill="#07080A"/><rect x="24" y="24" width="852" height="590" rx="30" fill="#0D1014" stroke="#222830" stroke-width="2"/>
    <line x1="450" y1="58" x2="450" y2="588" stroke="#23282E" stroke-width="2"/>
    <text x="225" y="60" text-anchor="middle" fill="#B7FF00" font-family="Arial" font-size="18" font-weight="800">START</text>
    <text x="675" y="60" text-anchor="middle" fill="#B7FF00" font-family="Arial" font-size="18" font-weight="800">END</text>
    <rect x="345" y="85" width="34" height="440" rx="8" fill="#30363D"/><circle cx="362.0" cy="125.0" r="13" fill="#0D1014" stroke="#F2F4F5" stroke-width="4"/><circle cx="225.0" cy="165.0" r="24" fill="#F2F4F5"/><line x1="225.0" y1="195.0" x2="225.0" y2="340.0" stroke="#F2F4F5" stroke-width="18" stroke-linecap="round"/><line x1="185.0" y1="195.0" x2="265.0" y2="195.0" stroke="#F2F4F5" stroke-width="17" stroke-linecap="round"/><line x1="185.0" y1="195.0" x2="134.1" y2="245.9" stroke="#F2F4F5" stroke-width="15" stroke-linecap="round"/><line x1="134.1" y1="245.9" x2="134.1" y2="317.9" stroke="#F2F4F5" stroke-width="15" stroke-linecap="round"/><line x1="265.0" y1="195.0" x2="315.9" y2="245.9" stroke="#F2F4F5" stroke-width="15" stroke-linecap="round"/><line x1="315.9" y1="245.9" x2="315.9" y2="317.9" stroke="#F2F4F5" stroke-width="15" stroke-linecap="round"/><line x1="203.0" y1="340.0" x2="153.0" y2="426.6" stroke="#F2F4F5" stroke-width="18" stroke-linecap="round"/><line x1="153.0" y1="426.6" x2="233.4" y2="494.1" stroke="#F2F4F5" stroke-width="18" stroke-linecap="round"/><line x1="247.0" y1="340.0" x2="297.0" y2="426.6" stroke="#F2F4F5" stroke-width="18" stroke-linecap="round"/><line x1="297.0" y1="426.6" x2="216.6" y2="494.1" stroke="#F2F4F5" stroke-width="18" stroke-linecap="round"/><circle cx="225.0" cy="267.5" r="22" fill="#B7FF00"/><rect x="795" y="85" width="34" height="440" rx="8" fill="#30363D"/><circle cx="812.0" cy="125.0" r="13" fill="#0D1014" stroke="#F2F4F5" stroke-width="4"/><circle cx="675.0" cy="230.0" r="24" fill="#F2F4F5"/><line x1="675.0" y1="260.0" x2="777.5" y2="362.5" stroke="#F2F4F5" stroke-width="18" stroke-linecap="round"/><line x1="635.0" y1="260.0" x2="715.0" y2="260.0" stroke="#F2F4F5" stroke-width="17" stroke-linecap="round"/><line x1="635.0" y1="260.0" x2="584.1" y2="310.9" stroke="#F2F4F5" stroke-width="15" stroke-linecap="round"/><line x1="584.1" y1="310.9" x2="584.1" y2="382.9" stroke="#F2F4F5" stroke-width="15" stroke-linecap="round"/><line x1="715.0" y1="260.0" x2="765.9" y2="310.9" stroke="#F2F4F5" stroke-width="15" stroke-linecap="round"/><line x1="765.9" y1="310.9" x2="765.9" y2="382.9" stroke="#F2F4F5" stroke-width="15" stroke-linecap="round"/><line x1="755.5" y1="362.5" x2="705.5" y2="449.1" stroke="#F2F4F5" stroke-width="18" stroke-linecap="round"/><line x1="705.5" y1="449.1" x2="786.0" y2="516.6" stroke="#F2F4F5" stroke-width="18" stroke-linecap="round"/><line x1="799.5" y1="362.5" x2="849.5" y2="449.1" stroke="#F2F4F5" stroke-width="18" stroke-linecap="round"/><line x1="849.5" y1="449.1" x2="769.1" y2="516.6" stroke="#F2F4F5" stroke-width="18" stroke-linecap="round"/><circle cx="726.3" cy="311.3" r="22" fill="#B7FF00"/><line x1="830" y1="210" x2="830" y2="360" stroke="#B7FF00" stroke-width="6" stroke-linecap="round" marker-end="url(#arr)"/>
    <text x="450" y="650" text-anchor="middle" fill="#F2F4F5" font-family="Arial" font-size="28" font-weight="800">Cable Crunch</text>
    <text x="450" y="684" text-anchor="middle" fill="#98A0A8" font-family="Arial" font-size="18" font-weight="600">High cable + rope</text></svg>