<svg xmlns="http://www.w3.org/2000/svg" width="900" height="720" viewBox="0 0 900 720">
    <defs><marker id="arr" markerWidth="10" markerHeight="10" refX="8" refY="3" orient="auto"><path d="M0,0 L0,6 L9,3 z" fill="#B7FF00"/></marker></defs>
    <rect width="900" height="720" rx="38" fill="#07080A"/><rect x="24" y="24" width="852" height="590" rx="30" fill="#0D1014" stroke="#222830" stroke-width="2"/>
    <line x1="450" y1="58" x2="450" y2="588" stroke="#23282E" stroke-width="2"/>
    <text x="225" y="60" text-anchor="middle" fill="#B7FF00" font-family="Arial" font-size="18" font-weight="800">START</text>
    <text x="675" y="60" text-anchor="middle" fill="#B7FF00" font-family="Arial" font-size="18" font-weight="800">END</text>
    <rect x="50" y="85" width="28" height="440" rx="8" fill="#30363D"/><rect x="372" y="85" width="28" height="440" rx="8" fill="#30363D"/><circle cx="225.0" cy="145.0" r="24" fill="#F2F4F5"/><line x1="225.0" y1="175.0" x2="225.0" y2="320.0" stroke="#F2F4F5" stroke-width="18" stroke-linecap="round"/><line x1="185.0" y1="175.0" x2="265.0" y2="175.0" stroke="#F2F4F5" stroke-width="17" stroke-linecap="round"/><line x1="185.0" y1="175.0" x2="114.1" y2="162.5" stroke="#F2F4F5" stroke-width="15" stroke-linecap="round"/><line x1="114.1" y1="162.5" x2="42.1" y2="162.5" stroke="#F2F4F5" stroke-width="15" stroke-linecap="round"/><line x1="265.0" y1="175.0" x2="335.9" y2="162.5" stroke="#F2F4F5" stroke-width="15" stroke-linecap="round"/><line x1="335.9" y1="162.5" x2="407.9" y2="162.5" stroke="#F2F4F5" stroke-width="15" stroke-linecap="round"/><line x1="203.0" y1="320.0" x2="177.1" y2="416.6" stroke="#F2F4F5" stroke-width="18" stroke-linecap="round"/><line x1="177.1" y1="416.6" x2="177.1" y2="521.6" stroke="#F2F4F5" stroke-width="18" stroke-linecap="round"/><line x1="247.0" y1="320.0" x2="272.9" y2="416.6" stroke="#F2F4F5" stroke-width="18" stroke-linecap="round"/><line x1="272.9" y1="416.6" x2="272.9" y2="521.6" stroke="#F2F4F5" stroke-width="18" stroke-linecap="round"/><circle cx="207.0" cy="225.0" r="16" fill="#B7FF00"/><circle cx="243.0" cy="225.0" r="16" fill="#B7FF00"/><rect x="500" y="85" width="28" height="440" rx="8" fill="#30363D"/><rect x="822" y="85" width="28" height="440" rx="8" fill="#30363D"/><circle cx="675.0" cy="145.0" r="24" fill="#F2F4F5"/><line x1="675.0" y1="175.0" x2="675.0" y2="320.0" stroke="#F2F4F5" stroke-width="18" stroke-linecap="round"/><line x1="635.0" y1="175.0" x2="715.0" y2="175.0" stroke="#F2F4F5" stroke-width="17" stroke-linecap="round"/><line x1="635.0" y1="175.0" x2="569.7" y2="205.4" stroke="#F2F4F5" stroke-width="15" stroke-linecap="round"/><line x1="569.7" y1="205.4" x2="523.5" y2="260.6" stroke="#F2F4F5" stroke-width="15" stroke-linecap="round"/><line x1="715.0" y1="175.0" x2="780.3" y2="205.4" stroke="#F2F4F5" stroke-width="15" stroke-linecap="round"/><line x1="780.3" y1="205.4" x2="826.5" y2="260.6" stroke="#F2F4F5" stroke-width="15" stroke-linecap="round"/><line x1="653.0" y1="320.0" x2="627.1" y2="416.6" stroke="#F2F4F5" stroke-width="18" stroke-linecap="round"/><line x1="627.1" y1="416.6" x2="627.1" y2="521.6" stroke="#F2F4F5" stroke-width="18" stroke-linecap="round"/><line x1="697.0" y1="320.0" x2="722.9" y2="416.6" stroke="#F2F4F5" stroke-width="18" stroke-linecap="round"/><line x1="722.9" y1="416.6" x2="722.9" y2="521.6" stroke="#F2F4F5" stroke-width="18" stroke-linecap="round"/><circle cx="657.0" cy="225.0" r="16" fill="#B7FF00"/><circle cx="693.0" cy="225.0" r="16" fill="#B7FF00"/><line x1="830" y1="250" x2="750" y2="250" stroke="#B7FF00" stroke-width="6" stroke-linecap="round" marker-end="url(#arr)"/>
    <text x="450" y="650" text-anchor="middle" fill="#F2F4F5" font-family="Arial" font-size="28" font-weight="800">Cable Chest Fly</text>
    <text x="450" y="684" text-anchor="middle" fill="#98A0A8" font-family="Arial" font-size="18" font-weight="600">Dual cable</text></svg>