<svg xmlns="http://www.w3.org/2000/svg" width="900" height="720" viewBox="0 0 900 720">
    <defs><marker id="arr" markerWidth="10" markerHeight="10" refX="8" refY="3" orient="auto"><path d="M0,0 L0,6 L9,3 z" fill="#B7FF00"/></marker></defs>
    <rect width="900" height="720" rx="38" fill="#07080A"/><rect x="24" y="24" width="852" height="590" rx="30" fill="#0D1014" stroke="#222830" stroke-width="2"/>
    <line x1="450" y1="58" x2="450" y2="588" stroke="#23282E" stroke-width="2"/>
    <text x="225" y="60" text-anchor="middle" fill="#B7FF00" font-family="Arial" font-size="18" font-weight="800">START</text>
    <text x="675" y="60" text-anchor="middle" fill="#B7FF00" font-family="Arial" font-size="18" font-weight="800">END</text>
    <line x1="115.0" y1="385.0" x2="315.0" y2="385.0" stroke="#30363D" stroke-width="18" stroke-linecap="round"/><line x1="285.0" y1="385.0" x2="320.0" y2="485.0" stroke="#30363D" stroke-width="14" stroke-linecap="round"/><circle cx="225.0" cy="180.0" r="24" fill="#F2F4F5"/><line x1="225.0" y1="210.0" x2="356.4" y2="271.3" stroke="#F2F4F5" stroke-width="18" stroke-linecap="round"/><line x1="185.0" y1="210.0" x2="265.0" y2="210.0" stroke="#F2F4F5" stroke-width="17" stroke-linecap="round"/><line x1="185.0" y1="210.0" x2="254.5" y2="228.6" stroke="#F2F4F5" stroke-width="15" stroke-linecap="round"/><line x1="254.5" y1="228.6" x2="254.5" y2="300.6" stroke="#F2F4F5" stroke-width="15" stroke-linecap="round"/><line x1="265.0" y1="210.0" x2="195.5" y2="228.6" stroke="#F2F4F5" stroke-width="15" stroke-linecap="round"/><line x1="195.5" y1="228.6" x2="123.5" y2="228.6" stroke="#F2F4F5" stroke-width="15" stroke-linecap="round"/><line x1="334.4" y1="271.3" x2="325.7" y2="370.9" stroke="#F2F4F5" stroke-width="18" stroke-linecap="round"/><line x1="325.7" y1="370.9" x2="334.9" y2="475.5" stroke="#F2F4F5" stroke-width="18" stroke-linecap="round"/><line x1="378.4" y1="271.3" x2="449.1" y2="342.0" stroke="#F2F4F5" stroke-width="18" stroke-linecap="round"/><line x1="449.1" y1="342.0" x2="449.1" y2="447.0" stroke="#F2F4F5" stroke-width="18" stroke-linecap="round"/><line x1="225.0" y1="210.0" x2="356.4" y2="271.3" stroke="#B7FF00" stroke-width="22" stroke-linecap="round"/><line x1="565.0" y1="385.0" x2="765.0" y2="385.0" stroke="#30363D" stroke-width="18" stroke-linecap="round"/><line x1="735.0" y1="385.0" x2="770.0" y2="485.0" stroke="#30363D" stroke-width="14" stroke-linecap="round"/><circle cx="675.0" cy="180.0" r="24" fill="#F2F4F5"/><line x1="675.0" y1="210.0" x2="806.4" y2="271.3" stroke="#F2F4F5" stroke-width="18" stroke-linecap="round"/><line x1="635.0" y1="210.0" x2="715.0" y2="210.0" stroke="#F2F4F5" stroke-width="17" stroke-linecap="round"/><line x1="635.0" y1="210.0" x2="676.3" y2="269.0" stroke="#F2F4F5" stroke-width="15" stroke-linecap="round"/><line x1="676.3" y1="269.0" x2="640.3" y2="331.3" stroke="#F2F4F5" stroke-width="15" stroke-linecap="round"/><line x1="715.0" y1="210.0" x2="645.5" y2="228.6" stroke="#F2F4F5" stroke-width="15" stroke-linecap="round"/><line x1="645.5" y1="228.6" x2="573.5" y2="228.6" stroke="#F2F4F5" stroke-width="15" stroke-linecap="round"/><line x1="784.4" y1="271.3" x2="775.7" y2="370.9" stroke="#F2F4F5" stroke-width="18" stroke-linecap="round"/><line x1="775.7" y1="370.9" x2="784.9" y2="475.5" stroke="#F2F4F5" stroke-width="18" stroke-linecap="round"/><line x1="828.4" y1="271.3" x2="899.1" y2="342.0" stroke="#F2F4F5" stroke-width="18" stroke-linecap="round"/><line x1="899.1" y1="342.0" x2="899.1" y2="447.0" stroke="#F2F4F5" stroke-width="18" stroke-linecap="round"/><line x1="675.0" y1="210.0" x2="806.4" y2="271.3" stroke="#B7FF00" stroke-width="22" stroke-linecap="round"/><line x1="790" y1="360" x2="715" y2="285" stroke="#B7FF00" stroke-width="6" stroke-linecap="round" marker-end="url(#arr)"/>
    <text x="450" y="650" text-anchor="middle" fill="#F2F4F5" font-family="Arial" font-size="28" font-weight="800">One-Arm Dumbbell Row</text>
    <text x="450" y="684" text-anchor="middle" fill="#98A0A8" font-family="Arial" font-size="18" font-weight="600">Dumbbell + bench</text></svg>