<svg xmlns="http://www.w3.org/2000/svg" width="900" height="720" viewBox="0 0 900 720">
    <defs><marker id="arr" markerWidth="10" markerHeight="10" refX="8" refY="3" orient="auto"><path d="M0,0 L0,6 L9,3 z" fill="#B7FF00"/></marker></defs>
    <rect width="900" height="720" rx="38" fill="#07080A"/><rect x="24" y="24" width="852" height="590" rx="30" fill="#0D1014" stroke="#222830" stroke-width="2"/>
    <line x1="450" y1="58" x2="450" y2="588" stroke="#23282E" stroke-width="2"/>
    <text x="225" y="60" text-anchor="middle" fill="#B7FF00" font-family="Arial" font-size="18" font-weight="800">START</text>
    <text x="675" y="60" text-anchor="middle" fill="#B7FF00" font-family="Arial" font-size="18" font-weight="800">END</text>
    <line x1="135.0" y1="395.0" x2="270.0" y2="300.0" stroke="#30363D" stroke-width="18" stroke-linecap="round"/><line x1="270.0" y1="300.0" x2="320.0" y2="405.0" stroke="#30363D" stroke-width="14" stroke-linecap="round"/><circle cx="225.0" cy="215.0" r="24" fill="#F2F4F5"/><line x1="225.0" y1="245.0" x2="336.1" y2="338.2" stroke="#F2F4F5" stroke-width="18" stroke-linecap="round"/><line x1="185.0" y1="245.0" x2="265.0" y2="245.0" stroke="#F2F4F5" stroke-width="17" stroke-linecap="round"/><line x1="185.0" y1="245.0" x2="160.4" y2="312.7" stroke="#F2F4F5" stroke-width="15" stroke-linecap="round"/><line x1="160.4" y1="312.7" x2="166.6" y2="384.4" stroke="#F2F4F5" stroke-width="15" stroke-linecap="round"/><line x1="265.0" y1="245.0" x2="289.6" y2="312.7" stroke="#F2F4F5" stroke-width="15" stroke-linecap="round"/><line x1="289.6" y1="312.7" x2="283.4" y2="384.4" stroke="#F2F4F5" stroke-width="15" stroke-linecap="round"/><line x1="314.1" y1="338.2" x2="288.2" y2="434.8" stroke="#F2F4F5" stroke-width="18" stroke-linecap="round"/><line x1="288.2" y1="434.8" x2="288.2" y2="539.8" stroke="#F2F4F5" stroke-width="18" stroke-linecap="round"/><line x1="358.1" y1="338.2" x2="384.0" y2="434.8" stroke="#F2F4F5" stroke-width="18" stroke-linecap="round"/><line x1="384.0" y1="434.8" x2="384.0" y2="539.8" stroke="#F2F4F5" stroke-width="18" stroke-linecap="round"/><circle cx="172.7" cy="278.8" r="12" fill="#B7FF00"/><circle cx="277.3" cy="278.8" r="12" fill="#B7FF00"/><line x1="585.0" y1="395.0" x2="720.0" y2="300.0" stroke="#30363D" stroke-width="18" stroke-linecap="round"/><line x1="720.0" y1="300.0" x2="770.0" y2="405.0" stroke="#30363D" stroke-width="14" stroke-linecap="round"/><circle cx="675.0" cy="215.0" r="24" fill="#F2F4F5"/><line x1="675.0" y1="245.0" x2="786.1" y2="338.2" stroke="#F2F4F5" stroke-width="18" stroke-linecap="round"/><line x1="635.0" y1="245.0" x2="715.0" y2="245.0" stroke="#F2F4F5" stroke-width="17" stroke-linecap="round"/><line x1="635.0" y1="245.0" x2="610.4" y2="312.7" stroke="#F2F4F5" stroke-width="15" stroke-linecap="round"/><line x1="610.4" y1="312.7" x2="669.4" y2="354.0" stroke="#F2F4F5" stroke-width="15" stroke-linecap="round"/><line x1="715.0" y1="245.0" x2="739.6" y2="312.7" stroke="#F2F4F5" stroke-width="15" stroke-linecap="round"/><line x1="739.6" y1="312.7" x2="680.6" y2="354.0" stroke="#F2F4F5" stroke-width="15" stroke-linecap="round"/><line x1="764.1" y1="338.2" x2="738.2" y2="434.8" stroke="#F2F4F5" stroke-width="18" stroke-linecap="round"/><line x1="738.2" y1="434.8" x2="738.2" y2="539.8" stroke="#F2F4F5" stroke-width="18" stroke-linecap="round"/><line x1="808.1" y1="338.2" x2="834.0" y2="434.8" stroke="#F2F4F5" stroke-width="18" stroke-linecap="round"/><line x1="834.0" y1="434.8" x2="834.0" y2="539.8" stroke="#F2F4F5" stroke-width="18" stroke-linecap="round"/><circle cx="622.7" cy="278.8" r="12" fill="#B7FF00"/><circle cx="727.3" cy="278.8" r="12" fill="#B7FF00"/><line x1="830" y1="390" x2="830" y2="245" stroke="#B7FF00" stroke-width="6" stroke-linecap="round" marker-end="url(#arr)"/>
    <text x="450" y="650" text-anchor="middle" fill="#F2F4F5" font-family="Arial" font-size="28" font-weight="800">Incline Dumbbell Curl</text>
    <text x="450" y="684" text-anchor="middle" fill="#98A0A8" font-family="Arial" font-size="18" font-weight="600">Incline bench + dumbbells</text></svg>