<svg xmlns="http://www.w3.org/2000/svg" width="900" height="720" viewBox="0 0 900 720">
    <defs><marker id="arr" markerWidth="10" markerHeight="10" refX="8" refY="3" orient="auto"><path d="M0,0 L0,6 L9,3 z" fill="#B7FF00"/></marker></defs>
    <rect width="900" height="720" rx="38" fill="#07080A"/><rect x="24" y="24" width="852" height="590" rx="30" fill="#0D1014" stroke="#222830" stroke-width="2"/>
    <line x1="450" y1="58" x2="450" y2="588" stroke="#23282E" stroke-width="2"/>
    <text x="225" y="60" text-anchor="middle" fill="#B7FF00" font-family="Arial" font-size="18" font-weight="800">START</text>
    <text x="675" y="60" text-anchor="middle" fill="#B7FF00" font-family="Arial" font-size="18" font-weight="800">END</text>
    <rect x="75" y="85" width="34" height="440" rx="8" fill="#30363D"/><circle cx="92.0" cy="475.0" r="13" fill="#0D1014" stroke="#F2F4F5" stroke-width="4"/><circle cx="225.0" cy="175.0" r="24" fill="#F2F4F5"/><line x1="225.0" y1="205.0" x2="225.0" y2="350.0" stroke="#F2F4F5" stroke-width="18" stroke-linecap="round"/><line x1="185.0" y1="205.0" x2="265.0" y2="205.0" stroke="#F2F4F5" stroke-width="17" stroke-linecap="round"/><line x1="185.0" y1="205.0" x2="255.9" y2="217.5" stroke="#F2F4F5" stroke-width="15" stroke-linecap="round"/><line x1="255.9" y1="217.5" x2="327.9" y2="217.5" stroke="#F2F4F5" stroke-width="15" stroke-linecap="round"/><line x1="265.0" y1="205.0" x2="194.1" y2="217.5" stroke="#F2F4F5" stroke-width="15" stroke-linecap="round"/><line x1="194.1" y1="217.5" x2="122.1" y2="217.5" stroke="#F2F4F5" stroke-width="15" stroke-linecap="round"/><line x1="203.0" y1="350.0" x2="260.4" y2="431.9" stroke="#F2F4F5" stroke-width="18" stroke-linecap="round"/><line x1="260.4" y1="431.9" x2="355.5" y2="476.3" stroke="#F2F4F5" stroke-width="18" stroke-linecap="round"/><line x1="247.0" y1="350.0" x2="189.6" y2="431.9" stroke="#F2F4F5" stroke-width="18" stroke-linecap="round"/><line x1="189.6" y1="431.9" x2="94.5" y2="476.3" stroke="#F2F4F5" stroke-width="18" stroke-linecap="round"/><line x1="225.0" y1="205.0" x2="225.0" y2="350.0" stroke="#B7FF00" stroke-width="22" stroke-linecap="round"/><rect x="525" y="85" width="34" height="440" rx="8" fill="#30363D"/><circle cx="542.0" cy="475.0" r="13" fill="#0D1014" stroke="#F2F4F5" stroke-width="4"/><circle cx="675.0" cy="175.0" r="24" fill="#F2F4F5"/><line x1="675.0" y1="205.0" x2="675.0" y2="350.0" stroke="#F2F4F5" stroke-width="18" stroke-linecap="round"/><line x1="635.0" y1="205.0" x2="715.0" y2="205.0" stroke="#F2F4F5" stroke-width="17" stroke-linecap="round"/><line x1="635.0" y1="205.0" x2="694.0" y2="246.3" stroke="#F2F4F5" stroke-width="15" stroke-linecap="round"/><line x1="694.0" y1="246.3" x2="687.7" y2="318.0" stroke="#F2F4F5" stroke-width="15" stroke-linecap="round"/><line x1="715.0" y1="205.0" x2="656.0" y2="246.3" stroke="#F2F4F5" stroke-width="15" stroke-linecap="round"/><line x1="656.0" y1="246.3" x2="662.3" y2="318.0" stroke="#F2F4F5" stroke-width="15" stroke-linecap="round"/><line x1="653.0" y1="350.0" x2="710.4" y2="431.9" stroke="#F2F4F5" stroke-width="18" stroke-linecap="round"/><line x1="710.4" y1="431.9" x2="805.5" y2="476.3" stroke="#F2F4F5" stroke-width="18" stroke-linecap="round"/><line x1="697.0" y1="350.0" x2="639.6" y2="431.9" stroke="#F2F4F5" stroke-width="18" stroke-linecap="round"/><line x1="639.6" y1="431.9" x2="544.5" y2="476.3" stroke="#F2F4F5" stroke-width="18" stroke-linecap="round"/><line x1="675.0" y1="205.0" x2="675.0" y2="350.0" stroke="#B7FF00" stroke-width="22" stroke-linecap="round"/><line x1="830" y1="250" x2="750" y2="250" stroke="#B7FF00" stroke-width="6" stroke-linecap="round" marker-end="url(#arr)"/>
    <text x="450" y="650" text-anchor="middle" fill="#F2F4F5" font-family="Arial" font-size="28" font-weight="800">Seated Cable Row</text>
    <text x="450" y="684" text-anchor="middle" fill="#98A0A8" font-family="Arial" font-size="18" font-weight="600">Low cable</text></svg>